<svg xmlns="http://www.w3.org/2000/svg" version="1.1" xmlns:xlink="http://www.w3.org/1999/xlink" xmlns:svgjs="http://svgjs.dev/svgjs" width="1000" height="1000" viewBox="0 0 1000 1000"><rect width="1000" height="1000" fill="#ffffff"></rect><g transform="matrix(0.7,0,0,0.7,149.57575757575756,282.1265587044535)"><svg viewBox="0 0 396 247" data-background-color="#ffffff" preserveAspectRatio="xMidYMid meet" height="623" width="1000" xmlns="http://www.w3.org/2000/svg" xmlns:xlink="http://www.w3.org/1999/xlink"><g id="tight-bounds" transform="matrix(1,0,0,1,0.2400000000000091,-0.09999999999999432)"><svg viewBox="0 0 395.52 247.2" height="247.2" width="395.52"><g><svg></svg></g><g><svg viewBox="0 0 395.52 247.2" height="247.2" width="395.52"><g transform="matrix(1,0,0,1,75.54432,64.06430791224258)"><svg viewBox="0 0 244.43135999999998 119.07138417551482" height="119.07138417551482" width="244.43135999999998"><g><svg viewBox="0 0 244.43135999999998 119.07138417551482" height="119.07138417551482" width="244.43135999999998"><g><svg viewBox="0 0 244.43135999999998 119.07138417551482" height="119.07138417551482" width="244.43135999999998"><g><svg viewBox="0 0 244.43135999999998 119.07138417551482" height="119.07138417551482" width="244.43135999999998"><g><svg viewBox="0 0 244.43135999999998 119.07138417551482" height="119.07138417551482" width="244.43135999999998"><g><svg viewBox="0 0 244.43135999999998 64.22141496654659" height="64.22141496654659" width="244.43135999999998"><g transform="matrix(1,0,0,1,0,0)"><svg width="244.43135999999998" viewBox="0.75 -39.05 194.29 51.05" height="64.22141496654659" data-palette-color="#0063db"><path d="M16.55 0L16.55 0Q15.45 0 14.7-0.75 13.95-1.5 13.95-2.6L13.95-2.6 13.95-39.05 19.15-39.05 19.15-2.6Q19.15-1.5 18.4-0.75 17.65 0 16.55 0ZM29.9-34.25L3.15-34.25Q2.1-34.25 1.43-34.93 0.75-35.6 0.75-36.65L0.75-36.65Q0.75-37.7 1.43-38.38 2.1-39.05 3.15-39.05L3.15-39.05 29.9-39.05Q30.95-39.05 31.63-38.38 32.3-37.7 32.3-36.65L32.3-36.65Q32.3-35.6 31.63-34.93 30.95-34.25 29.9-34.25L29.9-34.25ZM42.45 0.2L42.45 0.2Q38.4 0.2 35.3-1.58 32.2-3.35 30.42-6.48 28.65-9.6 28.65-13.65L28.65-13.65Q28.65-17.75 30.42-20.88 32.2-24 35.3-25.78 38.4-27.55 42.45-27.55L42.45-27.55Q46.45-27.55 49.55-25.78 52.65-24 54.42-20.88 56.2-17.75 56.2-13.65L56.2-13.65Q56.2-9.6 54.45-6.48 52.7-3.35 49.6-1.58 46.5 0.2 42.45 0.2ZM42.45-4.3L42.45-4.3Q45.05-4.3 47.05-5.5 49.05-6.7 50.17-8.8 51.3-10.9 51.3-13.65L51.3-13.65Q51.3-16.4 50.17-18.53 49.05-20.65 47.05-21.85 45.05-23.05 42.45-23.05L42.45-23.05Q39.85-23.05 37.85-21.85 35.85-20.65 34.7-18.53 33.55-16.4 33.55-13.65L33.55-13.65Q33.55-10.9 34.7-8.8 35.85-6.7 37.85-5.5 39.85-4.3 42.45-4.3ZM99.7 0.05L99.7 0.05Q98.59 0.05 97.87-0.68 97.15-1.4 97.15-2.5L97.15-2.5 97.15-16.8Q97.15-19.95 95.59-21.48 94.05-23 91.55-23L91.55-23Q88.95-23 87.27-21.2 85.59-19.4 85.59-16.6L85.59-16.6 81.45-16.6Q81.45-19.85 82.84-22.33 84.25-24.8 86.77-26.2 89.3-27.6 92.55-27.6L92.55-27.6Q95.4-27.6 97.59-26.35 99.8-25.1 101.02-22.68 102.25-20.25 102.25-16.8L102.25-16.8 102.25-2.5Q102.25-1.4 101.55-0.68 100.84 0.05 99.7 0.05ZM66.34 0.05L66.34 0.05Q65.25 0.05 64.52-0.68 63.8-1.4 63.8-2.5L63.8-2.5 63.8-24.75Q63.8-25.9 64.52-26.6 65.25-27.3 66.34-27.3L66.34-27.3Q67.5-27.3 68.2-26.6 68.9-25.9 68.9-24.75L68.9-24.75 68.9-2.5Q68.9-1.4 68.2-0.68 67.5 0.05 66.34 0.05ZM83.05 0.05L83.05 0.05Q81.95 0.05 81.22-0.68 80.5-1.4 80.5-2.5L80.5-2.5 80.5-16.8Q80.5-19.95 78.95-21.48 77.4-23 74.9-23L74.9-23Q72.3-23 70.59-21.2 68.9-19.4 68.9-16.6L68.9-16.6 65.75-16.6Q65.75-19.85 67.05-22.33 68.34-24.8 70.65-26.2 72.95-27.6 75.9-27.6L75.9-27.6Q78.75-27.6 80.95-26.35 83.15-25.1 84.37-22.68 85.59-20.25 85.59-16.8L85.59-16.8 85.59-2.5Q85.59-1.4 84.9-0.68 84.2 0.05 83.05 0.05ZM123.09 0.2L123.09 0.2Q119.04 0.2 115.94-1.58 112.84-3.35 111.07-6.48 109.29-9.6 109.29-13.65L109.29-13.65Q109.29-17.75 111.07-20.88 112.84-24 115.94-25.78 119.04-27.55 123.09-27.55L123.09-27.55Q127.09-27.55 130.19-25.78 133.29-24 135.07-20.88 136.84-17.75 136.84-13.65L136.84-13.65Q136.84-9.6 135.09-6.48 133.34-3.35 130.24-1.58 127.14 0.2 123.09 0.2ZM123.09-4.3L123.09-4.3Q125.69-4.3 127.69-5.5 129.69-6.7 130.82-8.8 131.94-10.9 131.94-13.65L131.94-13.65Q131.94-16.4 130.82-18.53 129.69-20.65 127.69-21.85 125.69-23.05 123.09-23.05L123.09-23.05Q120.49-23.05 118.49-21.85 116.49-20.65 115.34-18.53 114.19-16.4 114.19-13.65L114.19-13.65Q114.19-10.9 115.34-8.8 116.49-6.7 118.49-5.5 120.49-4.3 123.09-4.3ZM147.84 12L147.84 12Q147.34 12 146.64 11.7L146.64 11.7Q144.44 10.7 145.44 8.55L145.44 8.55 160.69-25.9Q161.69-28 163.84-27.1L163.84-27.1Q166.09-26.15 165.09-23.95L165.09-23.95 149.79 10.45Q149.19 12 147.84 12ZM153.74-1.1L153.74-1.1Q152.79-0.7 151.97-1.03 151.14-1.35 150.64-2.3L150.64-2.3 139.19-24.05Q138.69-25 139.06-25.88 139.44-26.75 140.39-27.15L140.39-27.15Q141.34-27.55 142.19-27.23 143.04-26.9 143.49-25.95L143.49-25.95 154.44-4.2Q154.94-3.25 154.81-2.38 154.69-1.5 153.74-1.1ZM180.29 0.2L180.29 0.2Q176.64 0.2 173.74-1.63 170.84-3.45 169.16-6.58 167.49-9.7 167.49-13.65L167.49-13.65Q167.49-17.6 169.31-20.75 171.14-23.9 174.26-25.73 177.39-27.55 181.29-27.55L181.29-27.55Q185.19-27.55 188.29-25.73 191.39-23.9 193.21-20.75 195.04-17.6 195.04-13.65L195.04-13.65 193.09-13.65Q193.09-9.7 191.41-6.58 189.74-3.45 186.84-1.63 183.94 0.2 180.29 0.2ZM181.29-4.3L181.29-4.3Q183.84-4.3 185.84-5.53 187.84-6.75 188.99-8.88 190.14-11 190.14-13.65L190.14-13.65Q190.14-16.35 188.99-18.48 187.84-20.6 185.84-21.83 183.84-23.05 181.29-23.05L181.29-23.05Q178.79-23.05 176.76-21.83 174.74-20.6 173.56-18.48 172.39-16.35 172.39-13.65L172.39-13.65Q172.39-11 173.56-8.88 174.74-6.75 176.76-5.53 178.79-4.3 181.29-4.3ZM192.49 0.05L192.49 0.05Q191.39 0.05 190.66-0.68 189.94-1.4 189.94-2.5L189.94-2.5 189.94-10.15 190.89-15.45 195.04-13.65 195.04-2.5Q195.04-1.4 194.31-0.68 193.59 0.05 192.49 0.05Z" opacity="1" transform="matrix(1,0,0,1,0,0)" fill="#0063db" class="undefined-text-0" data-fill-palette-color="primary" id="text-0"></path></svg></g></svg></g><g transform="matrix(1,0,0,1,0,79.38254972618904)"><svg viewBox="0 0 244.43135999999998 39.68883444932579" height="39.68883444932579" width="244.43135999999998"><g transform="matrix(1,0,0,1,0,0)"><svg width="244.43135999999998" viewBox="1.75 -35.5 220.48 35.8" height="39.68883444932579" data-palette-color="#0063db"><path d="M1.75-25L5.65-25 5.65-29.8Q5.65-32.85 7.53-34.18 9.4-35.5 11.58-35.5 13.75-35.5 15.8-34.85L15.8-34.85 15.25-32.15Q13.6-32.45 12.8-32.45L12.8-32.45Q9.35-32.45 9.35-29.1L9.35-29.1 9.35-25 14.45-25 14.45-22 9.35-22 9.35 0 5.6 0 5.6-22 1.75-22 1.75-25ZM50.09-14.95L50.09-14.95 52.14-14.95Q52.14-19.5 50.99-20.88 49.84-22.25 45.89-22.25 41.94-22.25 39.19-21.2L39.19-21.2 38.49-24.1Q42.69-25.5 47.19-25.5L47.19-25.5Q55.99-25.5 55.99-16.7L55.99-16.7 55.99 0 53.79 0 52.49-2.95Q50.19-1.05 48.51-0.38 46.84 0.3 44.64 0.3L44.64 0.3Q41.14 0.3 39.19-1.78 37.24-3.85 37.24-7.25L37.24-7.25Q37.24-14.95 50.09-14.95ZM52.19-6.55L52.19-11.8 49.94-11.8Q44.84-11.8 42.91-10.8 40.99-9.8 40.99-7.68 40.99-5.55 42.09-4.2 43.19-2.85 44.96-2.85 46.74-2.85 48.36-3.68 49.99-4.5 52.19-6.55L52.19-6.55ZM83.42-1.65L84.32-4.45Q87.57-2.95 90.52-2.95 93.47-2.95 95-4.13 96.52-5.3 96.52-7.25 96.52-9.2 95.22-10.28 93.92-11.35 92.05-11.95 90.17-12.55 88.3-13.25 86.42-13.95 85.12-15.35 83.82-16.75 83.82-18.9L83.82-18.9Q83.82-22.05 85.87-23.78 87.92-25.5 91.42-25.5 94.92-25.5 97.92-24.45L97.92-24.45 98.27-24.3 97.62-21.1Q94.62-22.25 92.05-22.25 89.47-22.25 88.52-21.45 87.57-20.65 87.57-18.75L87.57-18.75Q87.57-17.55 88.87-16.7 90.17-15.85 92.05-15.23 93.92-14.6 95.8-13.78 97.67-12.95 98.97-11.3 100.27-9.65 100.27-7.25L100.27-7.25Q100.27-3.75 97.82-1.73 95.37 0.3 91.07 0.3 86.77 0.3 83.42-1.65L83.42-1.65ZM127.86-5.4L127.86-5.4 127.86-22 124.46-22 124.46-25 127.91-25 127.91-32.15 131.66-32.15 131.66-25 137.76-25 137.76-22 131.61-22 131.61-6.1Q131.61-2.75 135.01-2.75L135.01-2.75Q135.81-2.75 137.46-3.05L137.46-3.05 138.01-0.35Q135.96 0.3 133.78 0.3 131.61 0.3 129.73-1.03 127.86-2.35 127.86-5.4ZM182.09-11.7L182.09-11.7 166.14-11.7Q166.14-6.9 168.42-4.9 170.69-2.9 174.14-2.9L174.14-2.9Q175.89-2.9 176.59-3.08 177.29-3.25 177.92-3.43 178.54-3.6 178.79-3.7L178.79-3.7Q180.04-4.05 180.94-4.35L180.94-4.35 181.54-1.45Q176.54 0.3 173.74 0.3L173.74 0.3Q168.59 0.3 165.49-2.83 162.39-5.95 162.39-12.23 162.39-18.5 165.32-22 168.24-25.5 172.72-25.5 177.19-25.5 179.69-22.6 182.19-19.7 182.19-14.75L182.19-14.75Q182.19-13.4 182.09-11.7ZM166.39-14.55L166.39-14.55 178.59-14.55Q178.59-18.25 177.29-20.25 175.99-22.25 172.77-22.25 169.54-22.25 168.04-20.1 166.54-17.95 166.39-14.55ZM213.13-19.1L213.13-19.1 213.13 0 209.38 0 209.38-25 211.78-25 212.38-22.05Q214.78-23.95 216.38-24.73 217.98-25.5 220.03-25.5L220.03-25.5Q221.03-25.5 221.53-25.4L221.53-25.4 222.23-25.2 221.63-21.75Q220.73-22.05 219.18-22.05L219.18-22.05Q216.18-22.05 213.13-19.1Z" opacity="1" transform="matrix(1,0,0,1,0,0)" fill="#0063db" class="undefined-text-1" data-fill-palette-color="secondary" id="text-1"></path></svg></g></svg></g></svg></g></svg></g></svg></g></svg></g></svg></g><g><path d="M0 123.6c0-68.262 55.338-123.6 123.6-123.6 43.519 0 81.785 22.491 103.808 56.484l-3.469 0c-21.659-32.316-58.515-53.588-100.339-53.588-66.663 0-120.704 54.041-120.704 120.704 0 66.663 54.041 120.704 120.704 120.704 41.825 0 78.681-21.272 100.339-53.588l3.469 0c-22.023 33.993-60.289 56.484-103.808 56.484-68.262 0-123.6-55.338-123.6-123.6z" fill="#0063db" stroke="transparent" data-fill-palette-color="tertiary"></path></g></svg></g><defs></defs></svg><rect width="395.52" height="247.2" fill="none" stroke="none" visibility="hidden"></rect></g></svg></g></svg>